<svg width="972" height="622" viewBox="0 0 972 622" fill="none" xmlns="http://www.w3.org/2000/svg">
<path d="M762 290.5C756.5 290 745.2 290.3 744 295.5" stroke="#C9A9A9"/>
<path d="M762.5 290.5C759.333 289.167 752.6 285.2 751 280" stroke="#C9A9A9"/>
<circle cx="839.5" cy="291.5" r="60.5" fill="#CFCFCF"/>
<rect x="824" y="268" width="54" height="15" rx="5" transform="rotate(90 824 268)" fill="#46865C"/>
<rect x="831" y="300" width="22" height="15" rx="5" transform="rotate(90 831 300)" fill="#595959"/>
<rect x="831" y="278" width="22" height="15" rx="5" transform="rotate(90 831 278)" fill="#595959"/>
<rect x="831" y="254" width="22" height="15" rx="5" transform="rotate(90 831 254)" fill="#595959"/>
<rect x="813" y="273" width="49" height="15" rx="5" transform="rotate(90 813 273)" fill="#595959"/>
<ellipse cx="835" cy="294" rx="8" ry="28" fill="#46865C"/>
<path d="M857.383 278.376C858.964 279.195 859.991 280.794 860.078 282.573L861.744 316.757C861.883 319.61 859.607 322 856.75 322L852 322C849.239 322 847 319.761 847 317L847 281.22C847 277.472 850.971 275.056 854.299 276.78L857.383 278.376Z" fill="#46865C"/>
<path d="M853.93 312.314C854.617 313.39 854.867 314.688 854.628 315.942L854.247 317.936C853.798 320.294 851.736 322 849.336 322L841.682 322C839.589 322 837.718 320.697 836.992 318.735L835.189 313.86C835.033 313.44 834.935 313.001 834.897 312.555L834.05 302.74C834.017 302.358 834.028 301.973 834.083 301.594L834.558 298.307C835.221 293.721 841.226 292.426 843.72 296.331L853.93 312.314Z" fill="#595959"/>
<path d="M836.117 284.149C835.585 283.376 835.299 282.459 835.299 281.52L835.299 280.08C835.299 276.237 840.101 274.494 842.567 277.442L843.268 278.281C844.471 279.719 846.659 279.788 847.95 278.429L848.853 277.479C850.15 276.113 852.442 276.7 852.924 278.521V278.521L854.621 284.089C854.765 284.561 854.838 285.053 854.838 285.547L854.838 295.259C854.838 300.167 848.504 302.137 845.72 298.095L836.117 284.149Z" fill="#595959"/>
<path d="M872.276 254.933C873.596 255.823 874.413 257.288 874.476 258.878L876.792 316.8C876.906 319.638 874.636 322 871.796 322L867 322C864.239 322 862 319.761 862 317L862 257.405C862 253.399 866.475 251.019 869.796 253.26L872.276 254.933Z" fill="#595959"/>
<path d="M875.666 266.561C877.236 267.38 878.256 268.968 878.348 270.736L880.728 316.742C880.876 319.601 878.598 322 875.735 322L870 322C867.239 322 865 319.761 865 317L865 269.246C865 265.492 868.983 263.076 872.312 264.812L875.666 266.561Z" fill="#46865C"/>
<path d="M880.492 289.4C881.751 290.288 882.53 291.706 882.605 293.244L883.746 316.758C883.884 319.611 881.608 322 878.752 322L875 322C872.239 322 870 319.761 870 317L870 291.645C870 287.592 874.57 285.223 877.882 287.559L880.492 289.4Z" fill="#595959"/>
<circle cx="757.5" cy="427.5" r="66.5" fill="#CFCFCF"/>
<path d="M731.763 410C733.287 410 734.535 411.212 734.579 412.736L735.884 457.982C735.948 460.182 734.182 462 731.981 462V462C729.795 462 728.035 460.206 728.077 458.02L728.947 412.763C728.976 411.228 730.229 410 731.763 410V410Z" fill="#46865C"/>
<path d="M743.763 410C745.287 410 746.535 411.212 746.579 412.736L747.884 457.982C747.948 460.182 746.182 462 743.981 462V462C741.795 462 740.035 460.206 740.077 458.02L740.947 412.763C740.976 411.228 742.229 410 743.763 410V410Z" fill="#68A379"/>
<path d="M756.763 410C758.287 410 759.535 411.212 759.579 412.736L760.884 457.982C760.948 460.182 759.182 462 756.981 462V462C754.795 462 753.035 460.206 753.077 458.02L753.947 412.763C753.976 411.228 755.229 410 756.763 410V410Z" fill="#46865C"/>
<path d="M768.763 410C770.287 410 771.535 411.212 771.579 412.736L772.884 457.982C772.948 460.182 771.182 462 768.981 462V462C766.795 462 765.035 460.206 765.077 458.02L765.947 412.763C765.976 411.228 767.229 410 768.763 410V410Z" fill="#68A379"/>
<path d="M780.763 410C782.287 410 783.535 411.212 783.579 412.736L784.884 457.982C784.948 460.182 783.182 462 780.981 462V462C778.795 462 777.035 460.206 777.077 458.02L777.947 412.763C777.976 411.228 779.229 410 780.763 410V410Z" fill="#46865C"/>
<path d="M758 393L758.479 400.131L760.495 393.251L759.416 400.322L762.881 393.994L760.292 400.696L765.053 395.196L761.067 401.236L766.918 396.805L761.708 401.918L768.392 398.75L762.187 402.713L769.413 400.946L762.483 403.587L769.934 403.298L762.584 404.5L769.934 405.702L762.483 405.413L769.413 408.054L762.187 406.287L768.392 410.25L761.708 407.082L766.918 412.195L761.067 407.764L765.053 413.804L760.292 408.304L762.881 415.006L759.416 408.678L760.495 415.749L758.479 408.869L758 416L757.521 408.869L755.505 415.749L756.584 408.678L753.119 415.006L755.708 408.304L750.947 413.804L754.933 407.764L749.082 412.195L754.292 407.082L747.608 410.25L753.813 406.287L746.587 408.054L753.517 405.413L746.066 405.702L753.416 404.5L746.066 403.298L753.517 403.587L746.587 400.946L753.813 402.713L747.608 398.75L754.292 401.918L749.082 396.805L754.933 401.236L750.947 395.196L755.708 400.696L753.119 393.994L756.584 400.322L755.505 393.251L757.521 400.131L758 393Z" fill="#595959"/>
<rect x="804" y="405" width="13" height="93" rx="4" transform="rotate(90 804 405)" fill="#595959"/>
<rect x="722" y="411" width="51" height="11" rx="4" transform="rotate(90 722 411)" fill="#595959"/>
<rect x="728" y="399" width="15" height="11" rx="4" transform="rotate(90 728 399)" fill="#595959"/>
<rect x="798" y="399" width="15" height="11" rx="4" transform="rotate(90 798 399)" fill="#595959"/>
<rect x="804" y="411" width="51" height="11" rx="4" transform="rotate(90 804 411)" fill="#595959"/>
<circle cx="744.5" cy="155.5" r="66.5" fill="#CFCFCF"/>
<path d="M741.929 167.043C743.789 167.821 745 169.64 745 171.656L745 189.975C745 193.676 741.119 196.095 737.797 194.464L696.797 174.337C695.085 173.496 694 171.755 694 169.848L694 154.51C694 150.94 697.635 148.52 700.929 149.898L741.929 167.043Z" fill="#595959"/>
<rect x="768" y="156" width="40" height="28" rx="5" transform="rotate(90 768 156)" fill="#595959"/>
<rect x="784" y="166" width="30" height="28" rx="5" transform="rotate(90 784 166)" fill="#595959"/>
<rect width="2" height="2" rx="1" transform="matrix(4.37114e-08 1 1 -4.37114e-08 715 163)" fill="#595959"/>
<rect width="2" height="1" rx="0.5" transform="matrix(4.37114e-08 1 1 -4.37114e-08 724 163)" fill="#595959"/>
<path d="M715.083 161.847C715.029 161.957 715 162.078 715 162.202V162.202C715 162.643 715.357 163 715.798 163L716.202 163C716.643 163 717 162.643 717 162.202V162.202C717 162.078 716.971 161.957 716.917 161.847L716.896 161.804C716.528 161.064 715.472 161.064 715.104 161.804L715.083 161.847Z" fill="#595959"/>
<path d="M724.015 161.955C724.005 161.994 724 162.035 724 162.075L724 162.5C724 162.776 724.224 163 724.5 163V163C724.776 163 725 162.776 725 162.5L725 162.075C725 162.035 724.995 161.994 724.985 161.955V161.955C724.86 161.449 724.14 161.449 724.015 161.955V161.955Z" fill="#595959"/>
<rect x="763" y="131" width="35" height="18" rx="5" transform="rotate(90 763 131)" fill="#595959"/>
<rect width="7" height="4" rx="2" transform="matrix(4.37114e-08 1 1 -4.37114e-08 740 154)" fill="#595959"/>
<rect width="7" height="4" rx="2" transform="matrix(4.37114e-08 1 1 -4.37114e-08 764 154)" fill="#595959"/>
<path d="M762.773 131.145C762.924 131.626 763 132.128 763 132.633L763 141C763 143.761 760.761 146 758 146L750 146C747.239 146 745 143.761 745 141L745 132.633C745 132.128 745.076 131.626 745.227 131.145L749.227 118.313C750.686 113.63 757.314 113.63 758.773 118.313L762.773 131.145Z" fill="#595959"/>
<path d="M740.051 153.89C740.017 153.991 740 154.097 740 154.204L740 156C740 156.552 740.448 157 741 157L743 157C743.552 157 744 156.552 744 156L744 154.204C744 154.097 743.983 153.991 743.949 153.89L742.949 150.868C742.647 149.954 741.353 149.954 741.051 150.868L740.051 153.89Z" fill="#595959"/>
<path d="M764.051 153.89C764.017 153.991 764 154.097 764 154.204L764 156C764 156.552 764.448 157 765 157L767 157C767.552 157 768 156.552 768 156L768 154.204C768 154.097 767.983 153.991 767.949 153.89L766.949 150.868C766.647 149.954 765.353 149.954 765.051 150.868L764.051 153.89Z" fill="#595959"/>
<circle cx="754.5" cy="141.5" r="4.5" fill="#46865C"/>
<path d="M754 94L756.021 100.219H762.56L757.269 104.062L759.29 110.281L754 106.438L748.71 110.281L750.731 104.062L745.44 100.219H751.979L754 94Z" fill="#DB2721"/>
<path d="M746.614 179C748.988 179 751.035 180.67 751.512 182.995L753.768 193.995C754.404 197.096 752.036 200 748.87 200L728.62 200C725.628 200 723.306 197.39 723.654 194.418L724.944 183.418C725.239 180.899 727.373 179 729.91 179L746.614 179Z" fill="#46865C"/>
<path d="M741.83 173C744.321 173 746.432 174.834 746.781 177.3L748.194 187.3C748.62 190.31 746.283 193 743.244 193L733.42 193C730.5 193 728.201 190.508 728.436 187.597L729.244 177.597C729.454 175.001 731.622 173 734.228 173L741.83 173Z" fill="#46865C"/>
<path d="M753.597 184C755.689 184 757.56 185.302 758.287 187.265L760.507 193.265C761.716 196.53 759.3 200 755.818 200L721.304 200C718.082 200 715.702 196.999 716.435 193.862L717.838 187.862C718.366 185.6 720.383 184 722.706 184L753.597 184Z" fill="#46865C"/>
<path d="M754.885 184C755.707 184 756.446 184.503 756.746 185.268L757.926 188.268C758.442 189.58 757.475 191 756.065 191L719.52 191C718.232 191 717.28 189.8 717.573 188.546L718.272 185.546C718.483 184.64 719.29 184 720.22 184L754.885 184Z" fill="#68A379"/>
<rect x="731" y="175" width="2" height="2" rx="1" fill="#595959"/>
<rect x="734" y="175" width="2" height="2" rx="1" fill="#595959"/>
<rect x="737" y="175" width="2" height="2" rx="1" fill="#595959"/>
<rect x="740" y="175" width="2" height="2" rx="1" fill="#595959"/>
<rect x="744" y="175" width="1" height="2" rx="0.5" fill="#595959"/>
<path d="M702.505 146.161C703.172 145.781 704 146.263 704 147.03L704 153C704 153.552 703.552 154 703 154L698 154C697.448 154 697 153.552 697 153L697 147.049C697 146.216 697.959 145.748 698.615 146.26L699.654 147.071C699.973 147.32 700.412 147.352 700.764 147.152L702.505 146.161Z" fill="#595959"/>
<path d="M710.549 150.01C711.214 149.673 712 150.157 712 150.902L712 156C712 156.552 711.552 157 711 157L706 157C705.448 157 705 156.552 705 156L705 150.911C705 150.104 705.907 149.629 706.57 150.089L707.692 150.867C707.994 151.077 708.386 151.104 708.713 150.938L710.549 150.01Z" fill="#595959"/>
<path d="M719.505 153.161C720.172 152.781 721 153.263 721 154.03L721 160C721 160.552 720.552 161 720 161L715 161C714.448 161 714 160.552 714 160L714 154.049C714 153.216 714.959 152.748 715.615 153.26L716.654 154.071C716.973 154.32 717.412 154.352 717.764 154.152L719.505 153.161Z" fill="#595959"/>
<path d="M727.447 156.341C728.112 155.9 729 156.377 729 157.174L729 163C729 163.552 728.552 164 728 164L724 164C723.448 164 723 163.552 723 163L723 157.263C723 156.394 724.031 155.939 724.673 156.523L725.151 156.958C725.49 157.266 725.995 157.305 726.377 157.052L727.447 156.341Z" fill="#595959"/>
<path d="M736.505 160.161C737.172 159.781 738 160.263 738 161.03L738 167C738 167.552 737.552 168 737 168L732 168C731.448 168 731 167.552 731 167L731 161.049C731 160.216 731.959 159.748 732.615 160.26L733.654 161.071C733.973 161.32 734.412 161.352 734.764 161.152L736.505 160.161Z" fill="#595959"/>
<path d="M701 370.5C701 365.5 702.8 354.4 710 350" stroke="#C9A9A9"/>
<path d="M700.5 370C698 366 691.1 359 683.5 363" stroke="#C9A9A9"/>
<path d="M696.001 226.5C694.668 231 692.801 240.4 696.001 242" stroke="#C9A9A9"/>
<path d="M696 227C692.5 229.5 684.2 233 679 227" stroke="#C9A9A9"/>
<path d="M414.352 129.489C414.352 136.712 413.129 143.833 413.129 151.02C413.129 154.686 413.435 158.27 413.435 161.913" stroke="#595959" stroke-width="3" stroke-linecap="round"/>
<path d="M304 160.954C304 150.152 304.612 139.307 304.612 128.529" stroke="#595959" stroke-width="3" stroke-linecap="round"/>
<path d="M209.566 224.777C209.566 213.975 210.178 203.13 210.178 192.353" stroke="#595959" stroke-width="3" stroke-linecap="round"/>
<path d="M324.189 128.529C322.728 130.036 322.252 131.784 320.994 133.271C319.642 134.869 318.938 137.115 318.513 139.117C317.775 142.597 317.693 146.599 318.751 150.01C319.728 153.159 319.79 157.566 323.288 158.659C325.378 159.312 330.074 160.012 331.53 157.827C333.251 155.246 335.272 152.557 335.813 149.449C336.124 147.661 336.73 146.297 336.73 144.436C336.73 142.772 337.024 140.726 336.662 139.1C335.952 135.9 335.814 132.202 333.366 129.753C332.013 128.4 331.169 128.529 329.253 128.529C328.581 128.529 326.043 128.187 325.718 128.835" stroke="#595959" stroke-width="3" stroke-linecap="round"/>
<path d="M229.755 192.353C228.295 193.859 227.819 195.607 226.561 197.094C225.208 198.692 224.504 200.938 224.079 202.94C223.341 206.42 223.259 210.423 224.317 213.833C225.295 216.982 225.357 221.39 228.855 222.483C230.944 223.136 235.64 223.835 237.097 221.65C238.817 219.07 240.839 216.38 241.379 213.272C241.69 211.484 242.297 210.121 242.297 208.259C242.297 206.595 242.59 204.549 242.229 202.923C241.518 199.724 241.381 196.025 238.932 193.576C237.579 192.223 236.736 192.353 234.82 192.353C234.147 192.353 231.609 192.01 231.285 192.659" stroke="#595959" stroke-width="3" stroke-linecap="round"/>
<path d="M344.989 127C344.989 133.649 345.295 140.343 345.295 146.951C345.295 149.579 345.295 152.207 345.295 154.836C345.295 156.432 344.684 157.812 344.684 159.424" stroke="#595959" stroke-width="3" stroke-linecap="round"/>
<path d="M150.615 118C149.915 122.993 150.004 128.089 150.004 133.124C150.004 139.104 150.31 145.107 150.31 151.104C150.31 155.822 150.615 160.558 150.615 165.294C150.615 167.226 150.312 169.398 150.921 171.225" stroke="#595959" stroke-width="3" stroke-linecap="round"/>
<path d="M150.309 142.471C151.368 140.395 152.456 138.095 153.809 136.2C155.791 133.426 156.867 130.082 158.806 127.313C160.715 124.585 161.12 120.953 163.462 118.612" stroke="#595959" stroke-width="3" stroke-linecap="round"/>
<path d="M151.535 140.33C157.371 143.188 162.546 147.636 165.98 153.177C168.092 156.585 170.382 159.803 171.962 163.509C172.961 165.854 174.28 167.793 174.783 170.307" stroke="#595959" stroke-width="3" stroke-linecap="round"/>
<path d="M176.004 132.989C176.93 137.207 180.047 141.62 183.039 144.612C184.086 145.659 185.554 146.823 186.778 147.671C187.804 148.381 189.094 148.547 190.075 149.201" stroke="#595959" stroke-width="3" stroke-linecap="round"/>
<path d="M280 189.529C280.926 193.748 284.043 198.161 287.035 201.153C288.083 202.2 289.55 203.364 290.774 204.212C291.8 204.922 293.09 205.088 294.071 205.742" stroke="#595959" stroke-width="3" stroke-linecap="round"/>
<path d="M182.121 167.248C184.965 164.959 186.833 161.877 188.528 158.7C189.46 156.952 189.937 155.361 190.38 153.415C190.893 151.166 191.733 148.853 192.147 146.618C193.059 141.693 194.663 136.414 194.663 131.459" stroke="#595959" stroke-width="3" stroke-linecap="round"/>
<path d="M286.117 223.789C288.961 221.5 290.83 218.418 292.524 215.241C293.456 213.493 293.933 211.902 294.376 209.956C294.889 207.707 295.73 205.394 296.144 203.158C297.056 198.234 298.659 192.955 298.659 188" stroke="#595959" stroke-width="3" stroke-linecap="round"/>
<path d="M199.863 158.683C201.97 161.439 205.798 164.251 206.899 167.554" stroke="#595959" stroke-width="3" stroke-linecap="round"/>
<path d="M200.172 158.683C202.557 158.683 204.941 158.683 207.326 158.683C209.174 158.683 210.897 157.861 212.713 157.766C217.069 157.536 221.421 156.222 225.782 155.777C228.385 155.512 231.198 155.318 233.82 155.318" stroke="#595959" stroke-width="3" stroke-linecap="round"/>
<path d="M226.172 166.942C226.713 164.479 228.365 162.459 229.231 160.077C229.568 159.148 230.811 156.669 231.678 156.236" stroke="#595959" stroke-width="3" stroke-linecap="round"/>
<path d="M211.488 157.154C211.488 151.757 212.408 146.668 212.95 141.316C213.193 138.912 213.364 136.69 214.071 134.365C214.521 132.889 214.853 131.168 214.853 129.624" stroke="#595959" stroke-width="3" stroke-linecap="round"/>
<path d="M215.16 129.624C215.652 132.637 217.09 135.5 217.301 138.563C217.476 141.09 218.604 143.854 219.613 146.159C220.407 147.974 221.514 149.81 221.873 151.784C222.073 152.883 222.807 153.905 222.807 155.013" stroke="#595959" stroke-width="3" stroke-linecap="round"/>
<path d="M240.852 166.942C241.796 160.923 242.191 154.637 244.658 149.031C245.943 146.111 247.207 143.235 247.955 140.16C248.531 137.793 248.83 135.335 249.416 132.989" stroke="#595959" stroke-width="3" stroke-linecap="round"/>
<path d="M250.031 127.483C251.1 130.754 251.441 134.27 251.884 137.662C252.56 142.847 254.089 147.421 256.693 151.886C257.594 153.431 257.919 155.279 258.902 156.78C259.684 157.974 260.502 159.075 261.179 160.332C261.9 161.67 262.51 162.72 263.796 163.577" stroke="#595959" stroke-width="3" stroke-linecap="round"/>
<path d="M239.629 150.424C243.545 149.884 247.821 149.285 251.762 149.201C253.982 149.153 256.137 149.127 258.288 148.589" stroke="#595959" stroke-width="3" stroke-linecap="round"/>
<path d="M286.736 162.966C286.056 159.398 286.736 155.877 286.736 152.294C286.736 148.55 287.041 144.848 287.041 141.112C287.041 136.569 287.041 132.026 287.041 127.483" stroke="#595959" stroke-width="3" stroke-linecap="round"/>
<path d="M192.302 226.789C191.623 223.222 192.302 219.7 192.302 216.117C192.302 212.373 192.608 208.671 192.608 204.935C192.608 200.392 192.608 195.849 192.608 191.306" stroke="#595959" stroke-width="3" stroke-linecap="round"/>
<path d="M286.738 127.177C292.365 127.177 297.934 127.483 303.562 127.483" stroke="#595959" stroke-width="3" stroke-linecap="round"/>
<path d="M192.305 191C197.932 191 203.501 191.306 209.129 191.306" stroke="#595959" stroke-width="3" stroke-linecap="round"/>
<path d="M345.219 159.772C347.94 157.792 349.79 155.328 352.084 152.906C353.504 151.407 354.621 149.626 355.857 147.978C357.508 145.777 359.411 143.836 360.972 141.554C361.961 140.108 363.2 138.042 363.708 136.371C364.138 134.957 364.914 133.234 365.085 131.783C365.28 130.123 365.401 127.509 366.325 126.124" stroke="#595959" stroke-width="3" stroke-linecap="round"/>
<path d="M366.325 128.265C366.325 131.363 366.327 134.393 366.019 137.476C365.8 139.668 365.497 141.847 365.254 144.035C365.061 145.773 365.335 147.634 364.948 149.337C364.454 151.513 364.967 153.83 364.557 156.033C364.297 157.433 364.184 158.954 364.184 160.383" stroke="#595959" stroke-width="3" stroke-linecap="round"/>
<path d="M350 116C351.679 117.272 356.804 119.523 358.259 116.612" stroke="#595959" stroke-width="3" stroke-linecap="round"/>
<path d="M389.573 128.571C389.573 139.107 388.961 149.556 388.961 160.078" stroke="#595959" stroke-width="3" stroke-linecap="round"/>
<path d="M377.645 127.653C379.862 127.653 381.812 128.571 384.068 128.571C386.937 128.571 389.931 128.918 392.786 129.166C397.563 129.581 402.518 129.183 407.316 129.183" stroke="#595959" stroke-width="3" stroke-linecap="round"/>
<path d="M413.453 162.018C415.555 159.244 417.359 156.426 419.401 153.606C420.516 152.067 421.01 150.637 421.882 149.018C422.856 147.209 424.283 145.695 425.213 143.835C426.782 140.696 428.09 137.412 429.495 134.199C430.331 132.289 431.581 130.697 432.724 128.982" stroke="#595959" stroke-width="3" stroke-linecap="round"/>
<path d="M432.726 128.982C433.869 134.842 433.062 141.516 432.743 147.42C432.48 152.283 433.032 157.148 433.032 162.018" stroke="#595959" stroke-width="3" stroke-linecap="round"/>
<path d="M252.554 192.301C252.554 198.412 253.212 204.529 252.401 210.688C252.045 213.396 251.943 216.424 251.943 219.151C251.943 220.734 251.637 222.265 251.637 223.808" stroke="#595959" stroke-width="3" stroke-linecap="round"/>
<path d="M252.555 192.301C255.624 191.103 258.884 192.218 262.037 191.451C264.58 190.833 267.382 190.772 269.99 190.772" stroke="#595959" stroke-width="3" stroke-linecap="round"/>
<path d="M304.25 223.808C304.717 222.24 305.441 220.668 306.221 219.219C307.081 217.623 308.54 215.236 309.909 214.019C310.845 213.187 311.547 211.454 312.271 210.383C313.284 208.883 313.868 206.823 314.633 205.165C316.135 201.912 317.901 198.7 319.544 195.496C320.45 193.73 321.509 192.634 321.703 190.602C321.781 189.775 322.16 188.699 322.909 188.325" stroke="#595959" stroke-width="3" stroke-linecap="round"/>
<path d="M322.911 188.325C322.911 192.707 322.618 197.218 323.063 201.58C323.368 204.562 324.373 207.367 324.746 210.349C325.097 213.16 325.176 216.023 325.358 218.845C325.497 221.008 326.275 223.218 326.275 225.337" stroke="#595959" stroke-width="3" stroke-linecap="round"/>
<path d="M336.062 222.278C337.629 219.783 339.752 218.358 341.891 216.432C343.907 214.618 345.826 212.725 347.975 211.113C348.76 210.525 350.048 208.477 348.434 207.969C346.271 207.29 344.032 207.204 342.112 205.998C339.492 204.353 337.286 202.619 337.286 199.422C337.286 196.103 337.008 193.489 339.121 190.772C341.069 188.268 345.919 186.795 348.91 186.795" stroke="#595959" stroke-width="3" stroke-linecap="round"/>
<path d="M348.91 186.795C348.91 199.442 348.91 212.12 348.91 224.725" stroke="#595959" stroke-width="3" stroke-linecap="round"/>
<path d="M369.102 186.489C369.102 197.797 370.019 209.157 370.019 220.443" stroke="#595959" stroke-width="3" stroke-linecap="round"/>
<path d="M354.723 188.019C357.267 187.968 359.668 187.553 362.234 187.866C365.553 188.27 369.147 188.325 372.498 188.325C374.853 188.325 377.184 188.08 379.5 188.019C380.963 187.98 382.402 188.173 383.782 187.713" stroke="#595959" stroke-width="3" stroke-linecap="round"/>
<path d="M394.794 187.713C394.794 194.728 394.054 201.711 394.505 208.7C394.702 211.749 395.071 214.829 395.389 217.843C395.519 219.081 395.319 220.182 395.712 221.361" stroke="#595959" stroke-width="3" stroke-linecap="round"/>
<path d="M394.488 206.678C394.532 204.791 395.113 203.223 396.018 201.614C396.628 200.529 399.48 200.818 400.487 200.883C403.434 201.073 404.817 203.544 406.911 205.182C409.118 206.91 409.726 209.224 410.021 211.946C410.541 216.76 408.462 218.266 404.736 220.273C402.447 221.505 398.708 221.849 396.324 221.055" stroke="#595959" stroke-width="3" stroke-linecap="round"/>
<path d="M429.055 177.007C432.875 172.157 441.704 172.606 445.539 177.126C446.656 178.443 448.115 180.188 448.393 181.935C448.773 184.317 448.392 186.733 448.699 189.106C449.053 191.838 446.841 193.712 444.825 195.19C439.535 199.069 431.254 198.813 425.01 199.405C424.547 199.448 421.771 199.403 422.478 199.795C423.3 200.252 422.892 201.622 422.954 202.429C423.18 205.365 424.466 208.346 424.466 211.266" stroke="#595959" stroke-width="3" stroke-linecap="round"/>
<path d="M427.523 219.831C427.026 219.831 424.599 219.503 424.226 220.137C423.767 220.918 424.361 221.891 424.957 222.312C426.565 223.447 427.791 225.223 429.97 225.031C431.383 224.906 431.649 221.592 430.548 220.919C429.74 220.425 423.999 220.73 426.367 222.278C426.941 222.653 431.201 222.989 428.746 223.808" stroke="#595959" stroke-width="3" stroke-linecap="round"/>
<path d="M249 133.118C249 131.715 249.228 130.463 249.306 129.141C249.345 128.482 249.918 127.765 249.918 127" stroke="#595959" stroke-width="3" stroke-linecap="round"/>
<circle cx="517.5" cy="293.5" r="65.5" fill="#616161"/>
<rect x="474" y="252" width="123" height="60" rx="5" fill="#595959"/>
<rect x="482" y="258" width="17" height="21" rx="5" fill="#46865C"/>
<rect x="501" y="258" width="18" height="21" rx="5" fill="#46865C"/>
<rect x="521" y="258" width="17" height="21" rx="5" fill="#46865C"/>
<rect x="496" y="287" width="74" height="41" rx="5" fill="#46865C"/>
<rect x="543" y="273" width="5" height="6" rx="2.5" fill="#46865C"/>
<rect x="552" y="273" width="5" height="6" rx="2.5" fill="#46865C"/>
<rect x="562" y="273" width="5" height="6" rx="2.5" fill="#46865C"/>
<rect x="572" y="258" width="17" height="21" rx="5" fill="#46865C"/>
<rect x="484" y="262" width="12" height="7" rx="3" fill="#8BC096"/>
<rect x="504" y="262" width="12" height="7" rx="3" fill="#8BC096"/>
<rect x="524" y="262" width="12" height="7" rx="3" fill="#8BC096"/>
<rect x="575" y="262" width="12" height="7" rx="3" fill="#8BC096"/>
<rect x="543.566" y="291.065" width="14.2958" height="12.4182" transform="rotate(-37.8375 543.566 291.065)" fill="#46865C"/>
<path d="M516.338 299.701V300.551H512.852V299.701H516.338ZM512.588 296.889V296.473C512.588 296.07 512.67 295.711 512.834 295.395C513.002 295.078 513.236 294.83 513.537 294.65C513.838 294.467 514.195 294.375 514.609 294.375C515.027 294.375 515.387 294.467 515.688 294.65C515.988 294.83 516.221 295.078 516.385 295.395C516.549 295.711 516.631 296.07 516.631 296.473V296.889C516.631 297.291 516.549 297.65 516.385 297.967C516.225 298.279 515.994 298.527 515.693 298.711C515.393 298.891 515.035 298.98 514.621 298.98C514.203 298.98 513.842 298.891 513.537 298.711C513.236 298.527 513.002 298.279 512.834 297.967C512.67 297.65 512.588 297.291 512.588 296.889ZM513.59 296.473V296.889C513.59 297.119 513.627 297.33 513.701 297.521C513.775 297.709 513.889 297.859 514.041 297.973C514.197 298.082 514.391 298.137 514.621 298.137C514.848 298.137 515.035 298.082 515.184 297.973C515.336 297.859 515.447 297.709 515.518 297.521C515.592 297.33 515.629 297.119 515.629 296.889V296.473C515.629 296.246 515.592 296.039 515.518 295.852C515.443 295.66 515.33 295.508 515.178 295.395C515.029 295.281 514.84 295.225 514.609 295.225C514.383 295.225 514.193 295.281 514.041 295.395C513.889 295.508 513.775 295.66 513.701 295.852C513.627 296.039 513.59 296.246 513.59 296.473ZM511.873 294.469V303H510.01L507.531 297.34V303H505.832V294.469H507.695L510.174 300.135V294.469H511.873ZM523.809 299.812V301.137H517.662L517.58 300.111L521.137 294.469H522.479L521.025 296.9L519.256 299.812H523.809ZM522.842 294.469V303H521.154V294.469H522.842ZM526.311 299.115L524.963 298.793L525.449 294.469H530.242V295.834H526.838L526.627 297.727C526.74 297.66 526.912 297.59 527.143 297.516C527.373 297.438 527.631 297.398 527.916 297.398C528.33 297.398 528.697 297.463 529.018 297.592C529.338 297.721 529.609 297.908 529.832 298.154C530.059 298.4 530.23 298.701 530.348 299.057C530.465 299.412 530.523 299.814 530.523 300.264C530.523 300.643 530.465 301.004 530.348 301.348C530.23 301.688 530.053 301.992 529.814 302.262C529.576 302.527 529.277 302.736 528.918 302.889C528.559 303.041 528.133 303.117 527.641 303.117C527.273 303.117 526.918 303.062 526.574 302.953C526.234 302.844 525.928 302.682 525.654 302.467C525.385 302.252 525.168 301.992 525.004 301.688C524.844 301.379 524.76 301.027 524.752 300.633H526.428C526.451 300.875 526.514 301.084 526.615 301.26C526.721 301.432 526.859 301.564 527.031 301.658C527.203 301.752 527.404 301.799 527.635 301.799C527.85 301.799 528.033 301.758 528.186 301.676C528.338 301.594 528.461 301.48 528.555 301.336C528.648 301.188 528.717 301.016 528.76 300.82C528.807 300.621 528.83 300.406 528.83 300.176C528.83 299.945 528.803 299.736 528.748 299.549C528.693 299.361 528.609 299.199 528.496 299.062C528.383 298.926 528.238 298.82 528.062 298.746C527.891 298.672 527.689 298.635 527.459 298.635C527.146 298.635 526.904 298.684 526.732 298.781C526.564 298.879 526.424 298.99 526.311 299.115ZM535.727 294.451V303H534.039V296.396L532.012 297.041V295.711L535.545 294.451H535.727Z" fill="#DAE9DD"/>
<rect x="504" y="312" width="58" height="7" rx="3" fill="#8BC096"/>
<path d="M605 275C629 274 680.9 262.8 696.5 226" stroke="#C9A9A9"/>
<path d="M608 290.5C626.833 283.333 684.1 273.3 762.5 290.5" stroke="#C9A9A9"/>
<path d="M607.5 306.5C637 312.5 697 333.7 701 370.5" stroke="#C9A9A9"/>
<path d="M762 290.5C755.167 291.5 741.5 293.9 741.5 295.5" stroke="#C9A9A9"/>
<path d="M761.5 290.5C757 287.833 747.8 281.9 747 279.5" stroke="#C9A9A9"/>
<path d="M436.645 291.637C421.422 292.876 383.345 297.851 352.821 307.842" stroke="#C9A9A9"/>
<path d="M435.601 292.591C418.866 285.204 383.504 268.713 375.938 261.846" stroke="#C9A9A9"/>
<path d="M58.0766 283.919C131.39 280.98 301.238 276.152 394.119 280.352" stroke="#C9A9A9" stroke-width="2"/>
<path d="M83.9969 294.348C157.577 289.747 321.854 282.851 390.326 292.081" stroke="#C9A9A9" stroke-width="2"/>
<path d="M53.3546 236.321C52.7984 236.537 52.1825 236.557 51.5866 236.557C44.8921 236.596 38.1776 235.159 32.0988 232.363C29.715 231.28 27.1326 229.488 27.1525 226.889C27.1525 226.436 27.2518 225.984 27.4703 225.59C28.3643 224.034 30.6487 224.251 32.3969 224.684C38.3166 226.102 44.2563 227.559 49.9774 229.626C50.1364 229.094 50.4741 228.602 50.8118 228.149C54.6855 222.932 57.6851 217.084 62.1546 212.358C62.8897 211.571 63.7241 210.803 64.7571 210.527C65.7901 210.251 67.1012 210.665 67.4787 211.669C67.7766 212.496 67.3992 213.382 67.0218 214.17C65.3332 217.714 63.6447 221.278 61.9561 224.822C60.3669 228.149 58.6585 231.615 55.7582 233.859C55.0827 234.824 54.4671 235.887 53.3546 236.321Z" fill="#F2E7D6"/>
<path d="M38.0596 261.839C36.7088 265.816 36.6492 270.266 37.8609 274.302C37.9801 274.696 38.0993 275.09 38.0596 275.484C37.9602 276.271 37.2649 276.783 36.5896 277.138C33.2324 278.929 29.3387 279.107 25.5843 279.126C19.5452 279.146 13.4864 278.791 7.46728 278.083C6.772 277.236 7.24886 275.976 7.56669 274.913C8.52023 271.743 7.80498 268.297 7.46728 264.989C7.42755 264.615 7.40778 264.201 7.56669 263.867C7.72562 263.552 8.02359 263.355 8.3017 263.177C12.5528 260.539 17.4794 259.102 22.4257 259.102C24.4321 259.102 26.4385 259.338 28.425 259.633C31.7028 260.165 34.901 260.893 38.0596 261.839Z" fill="#F2E7D6"/>
<path d="M26.2677 378.815C28.9693 378.598 31.6907 378.717 34.3726 379.15C36.4385 380.666 38.7032 381.926 41.087 382.891C41.7822 383.167 42.5172 383.443 43.0138 383.973C43.5302 384.505 43.7289 385.412 43.2522 385.982C42.835 386.474 42.1002 386.533 41.4446 386.533C36.4584 386.593 31.4525 386.16 26.5259 385.273C26.228 385.215 25.91 385.156 25.7114 384.939C25.5326 384.781 25.4531 384.545 25.3934 384.309C24.8968 382.478 25.2347 380.43 26.2677 378.815Z" fill="#6A6A6A"/>
<path d="M3.17572 377.122C5.59925 377.398 7.98296 377.969 10.2674 378.815C11.8169 380.509 13.585 382.024 15.5318 383.265C16.088 383.639 16.6839 383.993 17.0415 384.565C17.3991 385.136 17.4188 385.962 16.9023 386.376C16.4455 386.75 15.7899 386.672 15.2138 386.553C10.8038 385.726 6.45331 384.505 2.28164 382.871C2.02339 382.773 1.76521 382.655 1.60629 382.439C1.48711 382.262 1.44746 382.044 1.44746 381.828C1.32826 380.135 1.9838 378.362 3.17572 377.122Z" fill="#6A6A6A"/>
<path d="M5.3608 330.694C6.03622 316.064 4.62567 301.139 4.74487 286.431C4.30784 281.331 5.02308 276.133 6.8308 271.329C6.95 271.033 7.06915 270.718 7.28766 270.502C7.98293 269.793 9.17491 270.167 10.0887 270.541C18.9088 274.145 29.3379 273.298 37.3834 268.198C38.9725 270.6 39.4294 273.534 39.8266 276.389C40.4624 280.997 41.1577 285.584 41.3165 290.192V290.211C41.3563 291.196 41.3762 292.2 41.3563 293.185C41.2372 298.934 40.1246 304.624 39.2506 310.295C38.6745 313.996 38.1779 317.718 38.1382 321.479C38.0985 324.55 38.5354 327.346 37.8402 330.359C36.1318 337.762 36.1318 345.814 35.4167 353.376C34.6419 361.468 33.8871 369.581 33.2514 377.673C33.2316 377.988 33.1918 378.322 33.1719 378.638C32.7547 378.755 26.4575 380.174 26.4575 378.559C25.9608 362.827 25.4443 347.076 24.9477 331.343C24.7292 324.728 24.5109 317.994 22.8223 311.692C22.1271 311.771 21.4317 311.831 20.7363 311.91C16.9024 332.741 13.0683 353.573 9.2344 374.404C8.8967 376.236 8.47955 378.225 7.26777 379.406C6.056 380.587 3.77164 380.253 3.41406 378.421C4.50664 362.532 4.64566 346.622 5.3608 330.694Z" fill="#EBEFEB"/>
<path d="M32.2598 212.023C31.1871 212.594 30.0546 213.106 28.8429 213.5C24.0554 214.997 18.235 214.307 14.2818 211.748C11.0835 212.575 8.7991 214.76 7.62707 217.202C6.45502 219.624 6.23641 222.262 6.03776 224.841C5.1041 236.931 4.17037 249.02 3.23672 261.13C3.19698 261.74 3.15726 262.37 3.49497 262.921C4.21012 264.024 6.09752 264.241 7.68671 264.319C18.5132 264.792 29.3793 264.595 40.166 263.748C40.6032 263.709 41.08 263.67 41.4574 263.492C42.2917 263.099 42.4109 262.212 42.4109 261.464C42.6691 249.985 41.8943 238.467 40.1064 227.066C39.4509 222.892 38.6363 218.659 36.3121 214.839C35.8353 214.071 35.2594 213.284 34.3455 212.791C33.4317 212.299 33.1736 211.531 32.2598 212.023Z" fill="#46865C"/>
<path d="M13.0696 195.445C13.2087 194.067 13.4472 192.688 13.8643 191.369C15.3343 186.762 20.797 180.244 26.3791 182.627C27.6704 183.178 28.7433 184.143 29.7564 185.127C30.7894 186.132 31.7825 187.195 32.6169 188.376C34.1861 190.601 35.1795 193.397 35.1993 196.134C35.2192 198.674 34.3054 201.293 33.4314 203.655C32.2791 206.786 30.6502 210.035 27.6704 211.571C23.6974 213.618 18.5127 211.708 15.8309 208.164C13.169 204.6 12.6127 199.855 13.0696 195.445Z" fill="#F2E7D6"/>
<path d="M57.0519 222.479C56.9327 222.892 56.8136 223.345 57.0718 223.778C57.3699 224.251 58.0451 224.546 58.6608 224.782C60.3097 225.412 61.9585 226.18 63.6272 226.653C64.6999 224.625 65.1966 222.223 65.8919 220.096C66.6268 217.812 67.3223 215.528 67.9976 213.264C68.6333 211.078 69.2292 208.873 69.8052 206.687C70.3217 204.659 71.156 202.553 71.2752 200.446C70.4607 200.111 68.8715 200.584 68.0571 200.682C66.8254 200.84 65.5938 200.977 64.3423 201.135C64.0045 201.174 63.647 201.214 63.3888 201.371C63.0511 201.588 62.9319 201.942 62.8325 202.297C60.9255 208.893 58.9987 215.627 57.0519 222.479Z" fill="#666666"/>
<path d="M58.3068 221.691C58.2075 222.045 58.1081 222.439 58.267 222.794C58.4459 223.187 58.8829 223.404 59.3001 223.581C60.3927 224.054 61.4852 224.644 62.5778 224.999C63.3924 223.227 63.849 221.159 64.4053 219.289C65.0211 217.28 65.5973 215.272 66.1734 213.244C66.7295 211.275 67.2461 209.326 67.7427 207.337C68.1996 205.506 68.8948 203.576 69.0934 201.647C68.5371 201.371 67.4049 201.883 66.8089 202.021C65.9348 202.218 65.0609 202.415 64.1868 202.612C63.9484 202.671 63.6903 202.73 63.5114 202.887C63.2731 203.084 63.1738 203.439 63.0745 203.754C61.5051 209.739 59.896 215.705 58.3068 221.691Z" fill="#F2F2F2"/>
<path opacity="0.56" d="M62.7959 208.203C64.1864 208.617 65.6762 208.617 67.1263 208.203C66.1529 212.712 64.9612 217.182 63.5309 221.553C62.1404 220.785 60.7694 220.017 59.3789 219.249C59.9153 215.567 60.9087 211.925 62.2793 208.499C62.3191 208.4 62.3786 208.282 62.4581 208.223C62.5772 208.144 62.6965 208.184 62.7959 208.203Z" fill="#FBB03B"/>
<path d="M68.2344 191.92C68.453 192.925 68.6515 193.909 68.8502 194.913C68.9296 195.327 68.2741 195.504 68.1948 195.09C68.0159 194.086 67.8371 193.082 67.6584 192.058C67.6186 191.704 68.1549 191.546 68.2344 191.92Z" fill="#4D4D4D"/>
<path d="M70.7583 193.771C70.8377 193.535 70.8973 193.299 70.9768 193.062C70.9768 193.043 70.9967 193.023 71.0166 192.984C71.0762 192.728 71.1157 192.472 71.1356 192.196C71.1555 191.842 71.672 191.842 71.672 192.196C71.672 192.491 71.652 192.767 71.5924 193.062C71.6123 193.102 71.6123 193.161 71.5924 193.22C71.5131 193.456 71.4336 193.692 71.3541 193.929C71.215 194.303 70.639 194.165 70.7583 193.771Z" fill="#4D4D4D"/>
<path d="M72.3664 195.149C73.459 194.854 74.6309 194.834 75.7434 194.992C76.1009 195.031 76.1208 195.583 75.7434 195.543C74.6508 195.464 73.6178 195.602 72.545 195.78C72.1279 195.858 71.9492 195.268 72.3664 195.149Z" fill="#4D4D4D"/>
<path d="M13.8025 226.87C14.1204 226.555 14.5176 226.299 14.9546 226.181C16.7027 225.708 18.153 227.46 19.0868 228.996C22.2453 234.155 25.4236 239.353 27.9863 244.807C28.4829 244.531 29.0788 244.433 29.6349 244.354C36.0911 243.389 41.4747 242.72 48.6062 241.952C48.8447 241.932 49.1228 241.873 49.3811 241.794C51.0099 241.204 52.7182 240.259 53.7114 239.432C53.9896 239.195 54.2877 238.939 54.6255 238.802C54.9631 238.664 55.4 238.624 55.698 238.841C55.9959 239.058 56.0953 239.55 55.8173 239.806C56.6516 239.55 57.4857 239.313 58.3598 239.392C59.2141 239.471 60.108 239.944 60.3861 240.751C60.7635 241.834 59.9491 242.976 59.0155 243.665C56.9297 245.22 53.4731 246.205 50.7118 246.225C49.3808 246.796 47.8909 247.17 46.9771 247.426C42.9048 248.646 38.8324 249.867 34.78 251.088C32.8531 251.659 30.9064 252.25 28.8801 252.21C27.7875 252.191 26.7348 251.935 25.7415 251.501C19.623 248.863 15.3322 239.392 13.3854 234.155C12.4716 231.772 11.9153 228.681 13.8025 226.87Z" fill="#F2E7D6"/>
<path d="M8.06061 279.914C8.17979 279.618 8.65654 279.736 8.53735 280.051C8.19965 280.898 8.00111 281.764 7.90178 282.67C7.86204 283.005 7.32565 283.005 7.36538 282.67C7.4647 281.705 7.68317 280.8 8.06061 279.914Z" fill="#CED1CE"/>
<path d="M6.63792 289.621C6.67765 289.306 7.15441 289.306 7.13455 289.621C7.07496 290.251 7.01543 290.881 6.95584 291.511C6.93597 291.826 6.41948 291.826 6.45921 291.511C6.51881 290.881 6.57834 290.251 6.63792 289.621Z" fill="#CED1CE"/>
<path d="M6.75 299.879C6.75 299.544 7.26652 299.544 7.26652 299.879C7.26652 300.568 7.26652 301.258 7.26652 301.927C7.26652 302.261 6.75 302.261 6.75 301.927C6.75 301.238 6.75 300.568 6.75 299.879Z" fill="#CED1CE"/>
<path d="M6.43785 311.418C6.43785 311.102 6.93448 311.102 6.93448 311.418C6.93448 312.146 6.93448 312.893 6.93448 313.623C6.93448 313.957 6.41797 313.957 6.41797 313.623C6.43783 312.893 6.43785 312.146 6.43785 311.418Z" fill="#CED1CE"/>
<path d="M6.99445 320.415C6.95472 320.139 7.45134 320.061 7.49107 320.356C7.61027 321.282 7.6501 322.187 7.5905 323.112C7.57063 323.447 7.03424 323.447 7.05411 323.112C7.13357 322.207 7.11364 321.302 6.99445 320.415Z" fill="#CED1CE"/>
<path d="M6.99437 331.304C6.95463 330.99 7.47115 330.99 7.51088 331.304C7.63007 332.407 7.65001 333.509 7.59042 334.632C7.57055 334.966 7.05405 334.966 7.0739 334.632C7.1335 333.529 7.11356 332.427 6.99437 331.304Z" fill="#CED1CE"/>
<path d="M6.75773 341.898C6.77759 341.563 7.29412 341.563 7.29412 341.898C7.23452 342.901 7.17499 343.905 7.1154 344.89C7.09553 345.244 6.53926 345.244 6.55911 344.89C6.61871 343.905 6.67826 342.901 6.75773 341.898Z" fill="#CED1CE"/>
<path d="M5.93887 351.23C5.91901 350.875 6.47503 350.875 6.47503 351.23C6.53462 352.372 6.47511 353.495 6.3162 354.617C6.2566 354.971 5.72018 354.833 5.75991 354.46C5.91883 353.396 5.9786 352.313 5.93887 351.23Z" fill="#CED1CE"/>
<path d="M5.66173 363.24C5.70145 362.925 6.21796 362.906 6.17823 363.24C6.11863 363.811 6.05885 364.401 5.97939 364.973C5.93966 365.288 5.4234 365.308 5.46312 364.973C5.54258 364.401 5.60213 363.811 5.66173 363.24Z" fill="#CED1CE"/>
<path d="M4.91153 372.455C5.14991 371.844 5.24921 371.235 5.13002 370.585C5.07042 370.171 5.706 369.994 5.7656 370.407C5.88478 371.215 5.8053 371.943 5.48745 372.691C5.36827 373.027 4.77248 372.79 4.91153 372.455Z" fill="#CED1CE"/>
<path d="M32.3768 375.96C32.4961 375.605 33.0721 375.764 32.953 376.117C32.8139 376.57 32.7542 377.004 32.7939 377.457C32.8337 377.811 32.2776 377.811 32.2379 377.457C32.1782 376.945 32.2378 376.452 32.3768 375.96Z" fill="#CED1CE"/>
<path d="M32.2577 368.281C32.2974 367.966 32.7941 367.966 32.7742 368.281C32.7146 368.851 32.6548 369.442 32.5754 370.014C32.5356 370.329 32.0589 370.329 32.0787 370.014C32.1383 369.442 32.1981 368.871 32.2577 368.281Z" fill="#CED1CE"/>
<path d="M33.0795 357.806C33.3178 357.117 33.4769 356.389 33.5167 355.66C33.5365 355.305 34.0925 355.305 34.0726 355.66C34.0131 356.448 33.8542 357.216 33.596 357.944C33.4768 358.259 32.9801 358.121 33.0795 357.806Z" fill="#CED1CE"/>
<path d="M34.3428 345.145C34.4223 344.791 34.9786 344.948 34.8991 345.303C34.7998 345.796 34.7204 346.288 34.6807 346.8C34.6608 347.134 34.1641 347.134 34.1641 346.8C34.1641 346.248 34.2037 345.697 34.3428 345.145Z" fill="#CED1CE"/>
<path d="M35.1736 335.42C35.1736 336.266 35.1537 337.113 35.1537 337.939C35.1537 338.254 34.6571 338.254 34.6571 337.939C34.6571 337.093 34.6372 336.246 34.6372 335.42C34.6173 335.065 35.1935 335.065 35.1736 335.42Z" fill="#CED1CE"/>
<path d="M34.7377 326.933C34.7178 326.558 35.2938 326.558 35.3336 326.933C35.4329 327.858 35.3535 328.745 35.1946 329.65C35.1351 329.985 34.6384 329.847 34.678 329.512C34.8171 328.646 34.7973 327.779 34.7377 326.933Z" fill="#CED1CE"/>
<path d="M36.1496 318.762C36.2291 318.407 36.7655 318.545 36.7059 318.919C36.5668 319.667 36.5469 320.415 36.5866 321.183C36.6065 321.538 36.0899 321.519 36.0502 321.183C35.9509 320.356 35.9907 319.569 36.1496 318.762Z" fill="#CED1CE"/>
<path d="M36.3305 309.193C36.3106 308.838 36.8669 308.838 36.9067 309.193C36.986 310.098 36.9266 311.003 36.7478 311.91C36.6882 312.224 36.2112 312.087 36.2708 311.771C36.3899 310.924 36.41 310.058 36.3305 309.193Z" fill="#CED1CE"/>
<path d="M38.2977 298.323C38.2977 299.249 38.2977 300.194 38.2977 301.119C38.2977 301.454 37.7812 301.454 37.7812 301.119C37.7812 300.194 37.7812 299.249 37.7812 298.323C37.7812 297.989 38.2977 297.989 38.2977 298.323Z" fill="#CED1CE"/>
<path d="M38.6346 288.045C38.6346 289.03 38.6346 290.014 38.6346 290.999C38.6346 291.353 38.0982 291.353 38.0982 290.999C38.0982 290.014 38.0982 289.03 38.0982 288.045C38.0783 287.691 38.6346 287.691 38.6346 288.045Z" fill="#CED1CE"/>
<path d="M37.8028 276.567C38.1802 277.236 38.3392 277.965 38.3193 278.733C38.2994 279.067 37.7829 279.067 37.7829 278.733C37.8028 278.063 37.6438 277.453 37.326 276.842C37.1671 276.527 37.624 276.271 37.8028 276.567Z" fill="#CED1CE"/>
<path d="M36.3073 272.688C36.6847 272.688 36.6847 273.259 36.3073 273.259C35.9497 273.259 35.9497 272.688 36.3073 272.688Z" fill="#CED1CE"/>
<path d="M21.2352 194.086C20.4803 195.681 20.0036 197.414 19.8248 199.166C19.3679 199.068 19.2485 198.438 18.891 198.162C18.2354 197.65 17.302 198.536 17.3219 199.363C17.3416 200.19 17.8779 200.899 18.1362 201.686C18.7122 203.458 17.878 205.427 18.2754 207.239C18.3945 207.79 18.6329 208.322 18.7918 208.873C19.2884 210.606 19.05 212.516 19.6856 214.189C20.3015 215.843 21.7317 217.202 21.8907 218.954C17.0833 219.092 12.2563 219.23 7.44893 219.368C7.0119 219.387 6.51506 219.368 6.23695 219.033C5.99857 218.777 5.97869 218.383 5.97869 218.029C5.78004 210.941 6.37602 203.852 7.74672 196.902C8.40226 193.594 9.25663 190.266 10.9054 187.313C12.5543 184.359 15.077 181.8 18.2754 180.737C22.2483 179.398 26.6583 180.52 30.3731 182.469C33.1939 183.946 35.9948 186.21 36.5312 189.38C36.7299 190.581 36.4914 191.979 35.518 192.688C35.0015 193.062 34.3462 193.2 33.7304 193.279C31.2871 193.574 29.1615 193.062 26.7975 192.649C24.5924 192.255 23.6786 194.047 22.8046 195.819C22.1291 195.366 21.6523 194.716 21.2352 194.086Z" fill="#BCBD7E"/>
<path d="M61.0742 217.845C61.1333 217.675 61.1696 217.531 61.1696 217.352" stroke="white" stroke-linecap="round"/>
<path d="M61.1124 217.977C61.0819 217.822 61.0933 217.662 61.0933 217.504C61.0933 217.359 61.0743 217.215 61.0743 217.068C61.0743 216.952 61.0985 216.842 61.1114 216.727C61.1236 216.618 61.1097 216.504 61.1124 216.395C61.1184 216.155 61.1506 215.917 61.1506 215.677C61.1506 215.426 61.2014 215.189 61.2078 214.939C61.2143 214.69 61.3089 214.445 61.3223 214.198C61.3352 213.96 61.4838 213.708 61.547 213.489C61.6197 213.236 61.7095 212.985 61.7792 212.731C61.8471 212.484 61.9223 212.262 62.0378 212.032C62.0807 211.947 62.1837 211.896 62.2424 211.822C62.2992 211.75 62.3844 211.684 62.4597 211.632C62.621 211.52 62.7948 211.462 62.9834 211.415C63.0356 211.402 63.161 211.355 63.2007 211.41C63.2436 211.469 63.2494 211.524 63.2494 211.595C63.2494 211.68 63.0221 211.834 62.9537 211.887C62.9108 211.92 62.8669 211.954 62.8254 211.988C62.7758 212.028 62.6727 212.029 62.659 212.118C62.6359 212.267 62.546 212.326 62.3982 212.371C62.2502 212.416 62.4441 212.409 62.5074 212.409C62.628 212.409 62.7557 212.423 62.8721 212.386C63.2066 212.279 63.2876 211.937 63.2876 211.628C63.2876 211.559 63.2881 211.492 63.2017 211.482C63.0283 211.462 62.9251 211.666 62.8678 211.799C62.7839 211.993 62.7006 212.205 62.5477 212.356C62.4716 212.432 62.3314 212.484 62.2806 212.58C62.2132 212.707 62.1132 212.794 62.058 212.933C62.0052 213.066 61.9547 213.218 61.8672 213.331C61.6367 213.627 61.5225 213.978 61.4474 214.34C61.327 214.92 61.3032 215.52 61.3032 216.111C61.3032 216.4 61.3741 216.666 61.4951 216.926C61.5384 217.019 61.6372 217.073 61.6848 217.163C61.7275 217.243 61.7421 217.329 61.7421 217.419C61.7421 217.542 61.7952 217.66 61.7993 217.784C61.8025 217.88 61.8184 217.975 61.8184 218.073C61.8184 218.272 61.4637 218.318 61.3032 218.318C61.2132 218.318 61.1186 218.33 61.0743 218.234C61.0368 218.153 61.0452 218.01 61.0562 217.921C61.0647 217.854 61.1754 217.833 61.2269 217.857C61.3301 217.906 61.4121 217.961 61.494 217.864" stroke="#46865C" stroke-linecap="round"/>
<path d="M61.7969 213.697C61.9323 213.647 62.102 213.634 62.2463 213.62C62.327 213.613 62.4332 213.596 62.5103 213.573C62.5953 213.547 62.6406 213.471 62.7085 213.421C62.8939 213.285 62.9941 213.093 63.0466 212.874C63.0959 212.669 63.0371 212.498 63.0371 212.295" stroke="#46865C" stroke-linecap="round"/>
<path d="M62.9229 212.466C62.8848 212.74 62.7202 212.902 62.4883 213.049C62.3783 213.118 62.2711 213.181 62.1406 213.205" stroke="#46865C" stroke-linecap="round"/>
<path d="M63.1914 210.591C63.1947 210.721 63.2895 210.683 63.1914 210.61" stroke="#46865C" stroke-linecap="round"/>
<path d="M62.5602 210.856C62.4774 210.858 62.4648 210.858 62.4648 210.932" stroke="#46865C" stroke-linecap="round"/>
<path d="M62.5029 215.061C62.3565 215.149 62.3693 215.232 62.3693 215.391C62.3693 215.515 62.5964 215.484 62.6841 215.476C62.8109 215.464 62.9677 215.318 62.9322 215.184C62.9191 215.135 62.9381 215.065 62.8993 215.027C62.8839 215.012 62.7991 214.998 62.8378 215.005C62.9395 215.023 63.2507 215.023 63.1473 215.023C63.1267 215.023 62.9933 215.034 63.0668 215.042C63.0886 215.044 63.0025 215.131 62.9799 215.146C62.9356 215.174 62.8834 215.22 62.8548 215.265C62.8232 215.314 62.9854 215.264 62.9989 215.259C63.2182 215.189 63.5164 215.082 63.6699 214.906C63.8616 214.686 64.0667 214.493 64.2741 214.287C64.4165 214.146 64.5522 214.019 64.6473 213.841C64.8851 213.395 65.0926 212.928 65.279 212.459C65.4018 212.149 65.4511 211.803 65.5356 211.482C65.606 211.214 65.632 210.934 65.632 210.658C65.632 210.458 65.6159 210.271 65.5949 210.073C65.5856 209.985 65.5582 209.918 65.5218 209.838C65.4645 209.711 65.2584 209.652 65.1296 209.618C65.0085 209.586 64.8623 209.606 64.7374 209.606C64.6191 209.606 64.4989 209.615 64.3939 209.673C64.2307 209.765 64.104 209.853 64.0484 210.037C63.9729 210.287 63.9149 210.689 64.2455 210.766C64.4896 210.822 64.5665 211.102 64.6292 211.313C64.7412 211.689 64.8292 212.103 64.7077 212.493C64.6371 212.72 64.5721 212.951 64.5063 213.179C64.4582 213.346 64.377 213.487 64.2837 213.634C64.198 213.769 64.0826 213.922 63.972 214.038C63.8799 214.135 63.8088 214.259 63.724 214.364C63.6511 214.454 63.5504 214.495 63.4675 214.568C63.361 214.663 63.2675 214.627 63.1389 214.625C63.011 214.623 62.883 214.625 62.7551 214.625C62.6514 214.625 62.5498 214.644 62.4467 214.644C62.3977 214.644 62.3261 214.63 62.293 214.663" stroke="#46865C" stroke-linecap="round"/>
<path d="M62.1594 214.871C62.126 214.918 61.9987 215.151 62.0831 215.193" stroke="#46865C" stroke-linecap="round"/>
<path d="M62.7539 215.439C62.8579 215.439 62.9551 215.458 63.0592 215.458" stroke="#46865C" stroke-linecap="round"/>
<path d="M65.0038 210.837C64.8219 210.657 64.6791 210.452 64.5459 210.237C64.5298 210.211 64.4979 210.054 64.5184 210.033C64.5789 209.973 64.7863 210.085 64.8512 210.103C65.1975 210.2 65.0228 210.732 65.0081 210.966C64.9901 211.251 65.0229 211.536 65.0229 211.822" stroke="#46865C" stroke-linecap="round"/>
<path d="M61.7422 211.178C61.7741 211.201 61.8034 211.218 61.8376 211.235" stroke="#46865C" stroke-linecap="round"/>
<path d="M63.7656 209.265V209.417" stroke="#46865C" stroke-linecap="round"/>
<path d="M64.4141 209.019C64.4241 209.07 64.4331 209.119 64.4331 209.171" stroke="#46865C" stroke-linecap="round"/>
<path d="M64.9665 208.867C64.9665 208.929 64.9285 209.152 65.0047 209.171" stroke="#46865C" stroke-linecap="round"/>
<path d="M65.6514 209.152C65.6514 209.201 65.6655 209.315 65.6133 209.341" stroke="#46865C" stroke-linecap="round"/>
</svg>
