<svg width="149" height="155" viewBox="0 0 149 155" fill="none" xmlns="http://www.w3.org/2000/svg">
<path d="M149 80.3342C149 121.571 115.645 155 74.5 155C33.3548 155 0 121.571 0 80.3342C0 39.0974 33.3548 5.66841 74.5 5.66841C115.645 5.66841 149 39.0974 149 80.3342Z" fill="#D7E4DB"/>
<path d="M22.7437 87.5537C22.6608 89.4326 24.9311 90.4268 26.2504 89.0893L72.6854 42.0134C73.0428 41.651 73.2531 41.1685 73.2756 40.6594L74.5194 12.4779C74.6023 10.599 72.332 9.60482 71.0127 10.9423L24.5777 58.0182C24.2203 58.3806 24.0099 58.8631 23.9875 59.3722L22.7437 87.5537Z" fill="#595959"/>
<path d="M126.93 86.1906C126.868 87.9806 124.71 88.84 123.439 87.5808L80.2897 44.8292C79.8825 44.4257 79.6622 43.87 79.682 43.2965L80.6807 14.4258C80.7426 12.6358 82.9006 11.7764 84.1715 13.0356L127.321 55.7873C127.728 56.1907 127.948 56.7464 127.929 57.3199L126.93 86.1906Z" fill="#595959"/>
<path d="M122.759 79.262C122.722 80.4578 117.349 89.1121 116.5 88.271L74.1068 34.2957C73.8365 34.0279 73.4882 33.3807 73.5 33L74.693 1.32985C74.7301 0.134063 76.1714 -0.442936 77.0204 0.398152L123.345 46.2962C123.616 46.5639 123.763 46.9324 123.751 47.313L122.759 79.262Z" fill="#46865C"/>
<path d="M111.736 99.6663C111.699 100.862 110.257 101.439 109.408 100.598L64.6075 56.2101C64.3372 55.9423 64.1904 55.5739 64.2022 55.1932L65.1592 24.3548C65.1964 23.159 66.6377 22.582 67.4866 23.4231L112.288 67.811C112.558 68.0788 112.705 68.4472 112.693 68.8279L111.736 99.6663Z" fill="#59956E"/>
<path d="M105.008 106.486C104.971 107.681 103.53 108.258 102.681 107.417L57.88 63.0295C57.6097 62.7617 57.4629 62.3933 57.4747 62.0126L58.4318 31.1742C58.4689 29.9784 59.9102 29.4014 60.7591 30.2425L105.56 74.6304C105.83 74.8982 105.977 75.2666 105.965 75.6473L105.008 106.486Z" fill="#46865C"/>
<path d="M98.2803 113.307C98.2432 114.503 96.8019 115.08 95.9529 114.239L51.152 69.8506C50.8817 69.5828 50.7349 69.2144 50.7467 68.8337L51.7038 37.9953C51.7409 36.7995 53.1822 36.2225 54.0311 37.0636L98.8321 81.4515C99.1023 81.7193 99.2492 82.0877 99.2374 82.4684L98.2803 113.307Z" fill="#59956E"/>
<path d="M91.5526 120.126C91.5155 121.322 90.0742 121.899 89.2253 121.058L44.4243 76.6701C44.1541 76.4023 44.0072 76.0339 44.019 75.6532L44.9761 44.8148C45.0132 43.619 46.4545 43.042 47.3035 43.8831L92.1044 88.271C92.3747 88.5388 92.5215 88.9072 92.5097 89.2879L91.5526 120.126Z" fill="#46865C"/>
<path d="M84.8276 126.946C84.7905 128.142 83.3492 128.719 82.5003 127.878L37.6993 83.49C37.429 83.2222 37.2822 82.8538 37.294 82.4731L38.2511 51.6347C38.2882 50.4389 39.7295 49.8619 40.5784 50.703L85.3794 95.0909C85.6496 95.3587 85.7965 95.7271 85.7847 96.1078L84.8276 126.946Z" fill="#59956E"/>
<path d="M78.097 133.767C78.0599 134.962 76.6186 135.539 75.7697 134.698L30.9687 90.3105C30.6985 90.0427 30.5516 89.6743 30.5634 89.2936L31.5205 58.4552C31.5576 57.2594 32.9989 56.6824 33.8478 57.5235L78.6488 101.911C78.919 102.179 79.0659 102.548 79.0541 102.928L78.097 133.767Z" fill="#46865C"/>
<path d="M68.5951 142.464C68.5331 144.254 66.3752 145.113 65.1043 143.854L21.9548 101.102C21.5476 100.699 21.3273 100.143 21.3471 99.5695L22.3458 70.6988C22.4077 68.9089 24.5657 68.0494 25.8366 69.3086L68.9861 112.06C69.3933 112.464 69.6136 113.019 69.5937 113.593L68.5951 142.464Z" fill="#595959"/>
<path d="M73.9855 142.609C73.9026 144.488 76.1729 145.482 77.4922 144.144L123.927 97.0683C124.285 96.706 124.495 96.2234 124.517 95.7144L125.761 67.5328C125.844 65.6539 123.574 64.6598 122.255 65.9973L75.8196 113.073C75.4621 113.436 75.2518 113.918 75.2293 114.427L73.9855 142.609Z" fill="#595959"/>
<path d="M103.452 40.6594C101.317 40.2412 99.2493 41.6359 98.8321 43.7746C98.7328 44.2832 98.7345 44.8063 98.837 45.3143C98.9395 45.8222 99.1408 46.3049 99.4295 46.7349C99.7182 47.1648 100.089 47.5335 100.519 47.82C100.95 48.1065 101.433 48.3051 101.941 48.4045C104.074 48.8225 106.143 47.4279 106.56 45.2889C106.977 43.1502 105.585 41.0775 103.452 40.6594ZM103.539 42.1282C103.916 42.202 103.984 42.4427 103.935 42.6932C103.874 43.0058 103.568 43.2461 103.142 43.1626C102.786 43.0927 102.651 42.88 102.719 42.5847C102.768 42.3342 103.044 42.0311 103.539 42.1282ZM101.639 46.7327C101.382 46.6822 101.224 46.4884 101.538 45.836L102.071 44.6736C102.161 44.4884 102.184 44.4118 102.125 44.4001C102.048 44.385 101.687 44.4542 101.464 44.5487L101.377 44.3126C102.105 43.9112 102.884 43.7449 103.192 43.8052C103.45 43.8557 103.433 44.169 103.213 44.6133L102.625 45.8298C102.521 46.0448 102.531 46.1281 102.591 46.1398C102.668 46.155 102.939 46.1109 103.226 45.9632L103.334 46.1878C102.606 46.6784 101.896 46.7831 101.639 46.7327Z" fill="#46865C"/>
<g clip-path="url(#clip0_224_153)">
<path d="M84.371 15.5431C82.7379 14.5089 80.5757 14.9944 79.5415 16.6275C78.5074 18.2606 78.9929 20.4228 80.6259 21.457C82.259 22.4912 84.4213 22.0056 85.4554 20.3726C86.4896 18.7395 86.0041 16.5772 84.371 15.5431ZM84.7627 17.7315L84.988 18.7349L81.8538 19.439L80.8565 19.6626L80.6312 18.6592L80.4032 17.6425L81.4002 17.4186L81.6281 18.4354L84.7627 17.7315Z" fill="#595959"/>
</g>
<defs>
<clipPath id="clip0_224_153">
<rect width="7" height="7" fill="white" transform="translate(81.4141 13.6705) rotate(32.3446)"/>
</clipPath>
</defs>
</svg>
