<svg width="165" height="152" viewBox="0 0 165 152" fill="none" xmlns="http://www.w3.org/2000/svg">
<circle cx="76" cy="76" r="76" fill="#D7E4DB"/>
<rect x="23" y="8" width="102" height="137" rx="5" fill="#595959"/>
<rect x="35" y="22" width="39" height="11" fill="#46865C"/>
<rect x="35" y="37" width="81" height="11" fill="#8BC096"/>
<rect x="35" y="55" width="81" height="10" fill="#8BC096"/>
<rect x="89" y="72" width="27" height="10" fill="#46865C"/>
<rect x="89" y="87" width="27" height="10" fill="#8BC096"/>
<rect x="89" y="102" width="27" height="11" fill="#D0EED6"/>
<g clip-path="url(#clip0_224_167)">
<path d="M52.6328 85.1562C52.6328 86.3249 52.1686 87.4456 51.3423 88.2719C50.5159 89.0983 49.3952 89.5625 48.2266 89.5625C47.058 89.5625 45.9372 89.0983 45.1109 88.2719C44.2845 87.4456 43.8203 86.3249 43.8203 85.1562C43.8203 83.9876 44.2845 82.8669 45.1109 82.0406C45.9372 81.2142 47.058 80.75 48.2266 80.75C49.3952 80.75 50.5159 81.2142 51.3423 82.0406C52.1686 82.8669 52.6328 83.9876 52.6328 85.1562V85.1562Z" fill="#46865C"/>
<path d="M39.4062 74.875C38.2376 74.875 37.1169 75.3392 36.2906 76.1656C35.4642 76.9919 35 78.1126 35 79.2812V105.719C35 106.887 35.4642 108.008 36.2906 108.834C37.1169 109.661 38.2376 110.125 39.4062 110.125H77.5938C78.7624 110.125 79.8831 109.661 80.7094 108.834C81.5358 108.008 82 106.887 82 105.719V79.2812C82 78.1126 81.5358 76.9919 80.7094 76.1656C79.8831 75.3392 78.7624 74.875 77.5938 74.875H39.4062ZM77.5938 77.8125C77.9833 77.8125 78.3569 77.9672 78.6323 78.2427C78.9078 78.5181 79.0625 78.8917 79.0625 79.2812V96.9062L67.9734 91.1869C67.698 91.0489 67.3861 91.0011 67.0819 91.0501C66.7777 91.0991 66.4967 91.2426 66.2785 91.4601L55.3804 102.358L47.5666 97.153C47.2845 96.9652 46.9461 96.8807 46.6088 96.9139C46.2715 96.9471 45.9561 97.0959 45.716 97.3351L37.9434 104.25V105.836C37.9399 105.797 37.9379 105.758 37.9375 105.719V79.2812C37.9375 78.8917 38.0922 78.5181 38.3677 78.2427C38.6431 77.9672 39.0167 77.8125 39.4062 77.8125H77.5938Z" fill="#46865C"/>
</g>
<defs>
<clipPath id="clip0_224_167">
<rect width="47" height="47" fill="white" transform="translate(35 69)"/>
</clipPath>
</defs>
</svg>
