<svg width="161" height="53" viewBox="0 0 161 53" fill="none" xmlns="http://www.w3.org/2000/svg">
<path d="M20 33.9138C20 43.5629 17.404 48 13.4578 48C9.51149 48 6.3124 40.1778 6.3124 30.5287C6.3124 20.8796 4.73246 10 8.67873 10C12.625 10 20 24.2647 20 33.9138Z" fill="#4CA24C"/>
<path d="M35 33.9138C35 43.5629 37.596 48 41.5422 48C45.4885 48 48.6876 40.1778 48.6876 30.5287C48.6876 20.8796 50.2675 10 46.3213 10C42.375 10 35 24.2647 35 33.9138Z" fill="#4CA24C"/>
<path d="M21.1768 9.76159C23.9704 14.478 14.7528 23.7762 10.7357 26.7497C6.71869 29.7231 9.4234 25.2458 6.62981 20.5294C3.83622 15.813 4.82802 9.57909 8.84505 6.60565C12.8621 3.6322 18.3832 5.04517 21.1768 9.76159Z" fill="#4CA24C"/>
<path d="M33.6162 9.76159C30.8226 14.478 40.0402 23.7762 44.0572 26.7497C48.0743 29.7231 45.3696 25.2458 48.1632 20.5294C50.9568 15.813 49.965 9.57909 45.9479 6.60565C41.9309 3.6322 36.4098 5.04517 33.6162 9.76159Z" fill="#4CA24C"/>
<path d="M32 23.7273C32 31.0074 28.9171 46 23.3942 46C17.8714 46 12 31.0074 12 23.7273C12 16.4471 18.7848 12 24.3077 12C29.8305 12 32 16.4471 32 23.7273Z" fill="#FEFEFE"/>
<path d="M22 23.7273C22 31.0074 25.2371 46 31.0361 46C36.835 46 43 31.0074 43 23.7273C43 16.4471 35.8759 12 30.0769 12C24.2779 12 22 16.4471 22 23.7273Z" fill="#FEFEFE"/>
<ellipse rx="1.29534" ry="1.97906" transform="matrix(0.885476 0.464685 -0.387178 0.922005 8.74793 3.62524)" fill="#4CA24C"/>
<ellipse rx="1.29534" ry="1.97906" transform="matrix(-0.885476 0.464685 0.387178 0.922005 46.0411 3.62524)" fill="#4CA24C"/>
<ellipse rx="1.29534" ry="1.97906" transform="matrix(0.885476 0.464685 -0.387178 0.922005 12.455 2.42663)" fill="#4CA24C"/>
<ellipse rx="1.29534" ry="1.97906" transform="matrix(-0.885476 0.464685 0.387178 0.922005 42.338 2.42663)" fill="#4CA24C"/>
<ellipse rx="1.29534" ry="1.97906" transform="matrix(0.885476 0.464685 -0.387178 0.922005 16.8339 2.42663)" fill="#4CA24C"/>
<ellipse rx="1.29534" ry="1.97906" transform="matrix(-0.885476 0.464685 0.387178 0.922005 37.9474 2.42663)" fill="#4CA24C"/>
<ellipse rx="1.29534" ry="1.97906" transform="matrix(0.885476 0.464685 -0.387178 0.922005 20.4432 3.62524)" fill="#4CA24C"/>
<ellipse rx="1.29534" ry="1.97906" transform="matrix(-0.885476 0.464685 0.387178 0.922005 34.3458 3.62524)" fill="#4CA24C"/>
<ellipse rx="1.73365" ry="2.64872" transform="matrix(0.885476 0.464685 -0.387178 0.922005 24.4041 6.91594)" fill="#4CA24C"/>
<ellipse rx="1.73365" ry="2.64872" transform="matrix(-0.885476 0.464685 0.387178 0.922005 30.3889 6.91594)" fill="#4CA24C"/>
<path d="M75.9648 31.4766L89.9688 9.5625H93.7383V38H89.9688V16.0664L75.9648 38H72.2148V9.5625H75.9648V31.4766ZM104.285 16.8672H107.898L107.586 24.7773C107.508 26.7826 107.28 28.5143 106.902 29.9727C106.525 31.431 106.043 32.6745 105.457 33.7031C104.871 34.7188 104.214 35.5716 103.484 36.2617C102.768 36.9518 102.026 37.5312 101.258 38H99.4609L99.5586 35.0508L100.301 35.0312C100.73 34.5234 101.147 34.0026 101.551 33.4688C101.954 32.9219 102.326 32.2773 102.664 31.5352C103.003 30.7799 103.283 29.862 103.504 28.7812C103.738 27.6875 103.888 26.3529 103.953 24.7773L104.285 16.8672ZM105.184 16.8672H117.898V38H114.285V20.207H105.184V16.8672ZM98.6406 35.0312H120.613V44.2305H117V38H102.254V44.2305H98.6211L98.6406 35.0312ZM128.523 32.2773L138.27 16.8672H141.902V38H138.27V22.5898L128.523 38H124.93V16.8672H128.523V32.2773ZM152 9.5625L151.746 29.9727H148.484L148.211 9.5625H152ZM148.094 36.1836C148.094 35.5977 148.27 35.1029 148.621 34.6992C148.986 34.2956 149.52 34.0938 150.223 34.0938C150.913 34.0938 151.44 34.2956 151.805 34.6992C152.182 35.1029 152.371 35.5977 152.371 36.1836C152.371 36.7435 152.182 37.2253 151.805 37.6289C151.44 38.0326 150.913 38.2344 150.223 38.2344C149.52 38.2344 148.986 38.0326 148.621 37.6289C148.27 37.2253 148.094 36.7435 148.094 36.1836Z" fill="#3A3A3A"/>
</svg>
