<svg width="168" height="152" viewBox="0 0 168 152" fill="none" xmlns="http://www.w3.org/2000/svg">
<circle cx="76" cy="76" r="76" fill="#D7E4DB"/>
<rect x="25" y="28" width="143" height="70" rx="5" fill="#595959"/>
<rect x="34" y="35" width="20" height="24" rx="5" fill="#46865C"/>
<rect x="57" y="35" width="20" height="24" rx="5" fill="#46865C"/>
<rect x="80" y="35" width="20" height="24" rx="5" fill="#46865C"/>
<rect x="51" y="69" width="86" height="47" rx="5" fill="#46865C"/>
<rect x="105" y="52" width="6" height="7" rx="3" fill="#46865C"/>
<rect x="116" y="52" width="6" height="7" rx="3" fill="#46865C"/>
<rect x="127" y="52" width="6" height="7" rx="3" fill="#46865C"/>
<rect x="139" y="35" width="20" height="24" rx="5" fill="#46865C"/>
<rect x="37" y="39" width="14" height="8" rx="3" fill="#8BC096"/>
<rect x="60" y="39" width="14" height="8" rx="3" fill="#8BC096"/>
<rect x="83" y="39" width="14" height="8" rx="3" fill="#8BC096"/>
<rect x="142" y="39" width="14" height="8" rx="3" fill="#8BC096"/>
<rect x="106" y="73.1752" width="16.5875" height="14.4089" transform="rotate(-37.8375 106 73.1752)" fill="#46865C"/>
<path d="M74.4775 83.1514V84.1426H70.4102V83.1514H74.4775ZM70.1025 79.8701V79.3848C70.1025 78.9154 70.1982 78.4961 70.3896 78.127C70.5856 77.7578 70.859 77.4684 71.21 77.2588C71.5609 77.0446 71.9779 76.9375 72.4609 76.9375C72.9486 76.9375 73.3678 77.0446 73.7188 77.2588C74.0697 77.4684 74.3408 77.7578 74.5322 78.127C74.7236 78.4961 74.8193 78.9154 74.8193 79.3848V79.8701C74.8193 80.3395 74.7236 80.7588 74.5322 81.1279C74.3454 81.4925 74.0765 81.7819 73.7256 81.9961C73.3747 82.2057 72.9577 82.3105 72.4746 82.3105C71.987 82.3105 71.5654 82.2057 71.21 81.9961C70.859 81.7819 70.5856 81.4925 70.3896 81.1279C70.1982 80.7588 70.1025 80.3395 70.1025 79.8701ZM71.2715 79.3848V79.8701C71.2715 80.139 71.3148 80.3851 71.4014 80.6084C71.488 80.8271 71.6201 81.0026 71.7979 81.1348C71.9801 81.2624 72.2057 81.3262 72.4746 81.3262C72.7389 81.3262 72.9577 81.2624 73.1309 81.1348C73.3086 81.0026 73.4385 80.8271 73.5205 80.6084C73.6071 80.3851 73.6504 80.139 73.6504 79.8701V79.3848C73.6504 79.1204 73.6071 78.8789 73.5205 78.6602C73.4339 78.4368 73.3018 78.2591 73.124 78.127C72.9508 77.9948 72.7298 77.9287 72.4609 77.9287C72.1966 77.9287 71.9756 77.9948 71.7979 78.127C71.6201 78.2591 71.488 78.4368 71.4014 78.6602C71.3148 78.8789 71.2715 79.1204 71.2715 79.3848ZM69.2686 77.0469V87H67.0947L64.2031 80.3965V87H62.2207V77.0469H64.3945L67.2861 83.6572V77.0469H69.2686ZM83.1934 83.2812V84.8262H76.0225L75.9268 83.6299L80.0762 77.0469H81.6416L79.9463 79.8838L77.8818 83.2812H83.1934ZM82.0654 77.0469V87H80.0967V77.0469H82.0654ZM86.1123 82.4678L84.54 82.0918L85.1074 77.0469H90.6992V78.6396H86.7275L86.4814 80.8477C86.6136 80.7702 86.8141 80.6882 87.083 80.6016C87.3519 80.5104 87.6527 80.4648 87.9854 80.4648C88.4684 80.4648 88.8968 80.54 89.2705 80.6904C89.6442 80.8408 89.9609 81.0596 90.2207 81.3467C90.485 81.6338 90.6855 81.9847 90.8223 82.3994C90.959 82.8141 91.0273 83.2835 91.0273 83.8076C91.0273 84.2497 90.959 84.6712 90.8223 85.0723C90.6855 85.4688 90.4782 85.8242 90.2002 86.1387C89.9222 86.4486 89.5736 86.6924 89.1543 86.8701C88.735 87.0479 88.2383 87.1367 87.6641 87.1367C87.2357 87.1367 86.821 87.0729 86.4199 86.9453C86.0234 86.8177 85.6657 86.6286 85.3467 86.3779C85.0322 86.1273 84.7793 85.8242 84.5879 85.4688C84.401 85.1087 84.3031 84.6986 84.2939 84.2383H86.249C86.2764 84.5208 86.3493 84.7646 86.4678 84.9697C86.5908 85.1702 86.7526 85.3252 86.9531 85.4346C87.1536 85.5439 87.3883 85.5986 87.6572 85.5986C87.9079 85.5986 88.1221 85.5508 88.2998 85.4551C88.4775 85.3594 88.6211 85.2272 88.7305 85.0586C88.8398 84.8854 88.9196 84.6849 88.9697 84.457C89.0244 84.2246 89.0518 83.974 89.0518 83.7051C89.0518 83.4362 89.0199 83.1924 88.9561 82.9736C88.8923 82.7549 88.7943 82.5658 88.6621 82.4062C88.5299 82.2467 88.3613 82.1237 88.1562 82.0371C87.9557 81.9505 87.721 81.9072 87.4521 81.9072C87.0876 81.9072 86.805 81.9642 86.6045 82.0781C86.4085 82.1921 86.2445 82.3219 86.1123 82.4678ZM97.0977 77.0264V87H95.1289V79.2959L92.7637 80.0479V78.4961L96.8857 77.0264H97.0977Z" fill="#DAE9DD"/>
<rect x="60" y="98" width="67" height="8" rx="3" fill="#8BC096"/>
</svg>
